<svg width="206" height="43" viewBox="0 0 206 43" fill="none" xmlns="http://www.w3.org/2000/svg">
<path d="M30.987 33.4655L30.6115 32.4164L24.3317 14.7885L20.3086 3.49988H12.3268L0 38.6833H6.84946L9.73229 30.0418H23.0072L24.3268 33.9202L25.9554 38.6833H32.8504L30.987 33.4655ZM11.4352 24.9458L12.9638 20.3649C13.547 18.5084 14.1612 16.403 14.8065 14.0485C15.2589 12.3974 15.7499 10.5755 16.2796 8.58298C16.8218 10.5603 17.3264 12.3663 17.7933 14.0009C18.4624 16.3389 19.104 18.4602 19.7182 20.3649L21.2765 24.9458H11.4352Z" fill="white"/>
<path d="M50.4614 24.5396C49.8752 23.4956 49.0661 22.5935 48.0918 21.8975C47.9557 21.8011 47.817 21.7096 47.6757 21.6231C46.5826 20.939 45.3367 20.5373 44.0498 20.4541V20.1708C45.1712 19.9075 46.2327 19.4346 47.1784 18.7769C47.6046 18.4812 47.9958 18.1378 48.3444 17.7536C48.7461 17.31 49.0899 16.8174 49.3677 16.2874C49.8756 15.3218 50.1421 14.1746 50.1672 12.8458C50.1672 12.7765 50.1672 12.7071 50.1672 12.6388C50.1672 10.8754 49.7422 9.30484 48.8922 7.92716C48.5723 7.40984 48.1926 6.93202 47.7609 6.50357C46.9778 5.74517 46.0691 5.12841 45.0752 4.68076C43.3825 3.89285 41.277 3.49922 38.7587 3.49988H25.254V14.7935L31.5358 32.4213V23.1091H38.7349C39.9237 23.1091 40.9676 23.3039 41.8664 23.6936C41.9655 23.7362 42.0646 23.7808 42.1636 23.8293C43.1232 24.3101 43.8633 24.9636 44.3837 25.7898C44.909 26.6359 45.1793 27.6155 45.1624 28.6112C45.1624 29.7248 44.8483 30.6755 44.2202 31.4634C44.0254 31.7059 43.8074 31.9288 43.5694 32.1291C42.5061 33.0266 40.8332 33.4754 38.5507 33.4754H31.9132L33.7727 38.6932H39.473C42.1649 38.6932 44.4045 38.2762 46.1917 37.442C46.9484 37.0948 47.6608 36.6581 48.3137 36.1413C49.064 35.5453 49.7043 34.8228 50.2058 34.0064C50.7858 33.0529 51.182 31.9991 51.3738 30.8997C51.4836 30.2823 51.5379 29.6564 51.5363 29.0293C51.5363 27.2798 51.178 25.7832 50.4614 24.5396ZM43.1533 16.119C42.8461 16.5757 42.4616 16.9753 42.017 17.2998C41.7229 17.5162 41.4076 17.7021 41.0759 17.8546C40.1942 18.2647 39.1943 18.4695 38.0761 18.4688H31.5378V8.69492H38.1752C40.0489 8.69492 41.4738 9.13974 42.4499 10.0294C42.9965 10.5163 43.4106 11.1339 43.6536 11.8244C43.8309 12.3448 43.9186 12.8915 43.9131 13.4412C43.9098 14.4807 43.6566 15.374 43.1533 16.1209V16.119Z" fill="#E64C45"/>
<path d="M67.3285 26.9013C67.1447 27.8998 66.7801 28.8563 66.2527 29.7237C65.7582 30.5312 65.1179 31.2397 64.3645 31.8131C63.6071 32.385 62.756 32.8208 61.8492 33.1009C60.8777 33.3985 59.8664 33.5458 58.8504 33.5378C56.883 33.5378 55.1513 33.0577 53.6554 32.0974C53.1211 31.7537 52.6264 31.352 52.1803 30.8997C51.9868 31.9971 51.5893 33.0485 51.0083 33.9995C50.5068 34.8159 49.8665 35.5384 49.1162 36.1343C49.5392 36.4491 49.9784 36.7418 50.4318 37.0111C52.8794 38.4594 55.6532 39.1836 58.7533 39.1836C60.8146 39.1836 62.7035 38.8722 64.42 38.2494C66.0714 37.6655 67.6007 36.7812 68.9304 35.641C71.5257 33.4056 73.2138 30.2982 73.6767 26.9043L67.3285 26.9013ZM71.9569 10.1235C71.1349 8.63713 70.0316 7.3249 68.7085 6.25986C67.3665 5.18992 65.843 4.36983 64.2109 3.83867C62.4495 3.2685 60.6077 2.98552 58.7563 3.00057C55.6701 3.00057 52.9031 3.72475 50.4555 5.1731C49.7917 5.56499 49.16 6.00888 48.5663 6.50059C48.9981 6.92904 49.3778 7.40686 49.6977 7.92417C50.5477 9.30186 50.9727 10.8724 50.9727 12.6358C50.9727 12.7041 50.9727 12.7735 50.9727 12.8428C51.6615 11.7562 52.5732 10.8283 53.6475 10.1205C55.15 9.13708 56.8853 8.64504 58.8534 8.64438C59.8732 8.63754 60.8882 8.78483 61.864 9.08127C62.7778 9.36128 63.6343 9.8021 64.3932 10.383C65.1382 10.9575 65.7689 11.6665 66.2527 12.4733C66.7671 13.3403 67.123 14.292 67.3038 15.2838H73.6559C73.3726 13.3626 72.8063 11.6425 71.9569 10.1235Z" fill="white"/>
<path d="M63.4679 21.4883V21.8588C62.9189 22.4813 62.3317 23.0689 61.7095 23.6183C61.2357 24.0393 60.7096 24.3976 60.1442 24.6842C59.6869 24.9196 59.1814 25.0464 58.6672 25.0547C58.2994 25.0649 57.9351 24.9807 57.6091 24.81C57.3163 24.6484 57.0827 24.3975 56.9424 24.0938C56.7845 23.744 56.7076 23.363 56.7175 22.9793C56.7211 22.6151 56.7758 22.2533 56.88 21.9044C56.9959 21.5069 57.1533 21.1228 57.3496 20.7582C57.5741 20.3452 57.8267 19.948 58.1055 19.5694C58.4033 19.158 58.754 18.7264 59.1575 18.2746C59.5401 17.8413 59.9536 17.4364 60.3949 17.063C60.7415 16.7665 61.1116 16.4985 61.5014 16.2616C61.7927 16.0863 62.1011 15.9413 62.4218 15.8287C62.6477 15.7446 62.8853 15.6965 63.1261 15.686C63.2978 15.6807 63.467 15.7284 63.6106 15.8227C63.7499 15.9217 63.8571 16.0595 63.9187 16.219C63.9941 16.4114 64.0308 16.6167 64.0266 16.8233C64.0266 17.2532 63.8804 17.7314 63.5878 18.2578C63.2818 18.8045 62.9163 19.3159 62.4981 19.7824C62.1175 20.219 61.6988 20.6209 61.2468 20.9831C60.8506 21.2935 60.5643 21.4484 60.3879 21.4477C60.265 21.4454 60.1477 21.3953 60.061 21.308C60.0145 21.2692 59.9768 21.2208 59.9507 21.1661C59.9245 21.1113 59.9105 21.0516 59.9094 20.991C59.9094 20.7751 60.0244 20.5129 60.2542 20.2044C60.4803 19.9009 60.7322 19.6175 61.0071 19.3574C61.2785 19.1012 61.441 18.973 61.4945 18.973C61.5213 18.973 61.5341 18.9839 61.5341 19.0067C61.5256 19.069 61.5054 19.1292 61.4747 19.184C61.4478 19.2322 61.4278 19.2839 61.4153 19.3376C61.4153 19.3683 61.4262 19.3832 61.4489 19.3832C61.515 19.3832 61.7012 19.2105 62.0077 18.8651C62.3209 18.5098 62.6026 18.1279 62.8497 17.7238C63.1067 17.3064 63.2348 16.965 63.2341 16.6995C63.2398 16.6094 63.215 16.5201 63.1638 16.4458C63.1373 16.4157 63.1042 16.3921 63.0671 16.3768C63.03 16.3615 62.9898 16.355 62.9498 16.3577C62.6856 16.3577 62.2814 16.5733 61.7372 17.0046C61.1312 17.4998 60.5739 18.0518 60.0729 18.6531C59.5252 19.2875 59.0473 19.979 58.6473 20.7156C58.2669 21.4269 58.0767 22.0524 58.0767 22.5919C58.0685 22.859 58.1161 23.1249 58.2164 23.3726C58.3014 23.5721 58.4447 23.7413 58.6275 23.858C58.8243 23.9763 59.0509 24.0354 59.2804 24.0284C59.8312 24.0284 60.4563 23.8138 61.1557 23.3845C61.8551 22.9552 62.6258 22.3231 63.4679 21.4883Z" fill="white"/>
<path d="M66.1427 21.5082V21.9243C65.8463 22.3255 65.4994 22.6868 65.1104 22.9991C64.7915 23.2409 64.516 23.3617 64.2951 23.3617C63.9834 23.3617 63.7522 23.1983 63.6017 22.8713C63.4475 22.5353 63.3697 22.1692 63.3738 21.7994C63.373 21.6565 63.3883 21.514 63.4194 21.3744C63.443 21.2595 63.4792 21.1476 63.5274 21.0406C63.569 20.9534 63.6469 20.8167 63.7612 20.6305C64.3007 19.7904 64.7961 19.3703 65.2472 19.3703C65.479 19.3703 65.5959 19.4595 65.5959 19.6378C65.5959 19.7593 65.5206 19.9495 65.37 20.2084C65.2621 20.4104 65.1268 20.5964 64.9678 20.7612C64.7411 20.9729 64.5252 21.1957 64.3209 21.4289C64.2219 21.549 64.1686 21.7003 64.1703 21.8559C64.1689 21.9209 64.182 21.9853 64.2086 22.0446C64.2351 22.1038 64.2745 22.1565 64.3239 22.1987C64.4343 22.2921 64.5756 22.3409 64.7201 22.3354C64.9328 22.3256 65.1385 22.257 65.3145 22.1373C65.6052 21.9475 65.8819 21.7373 66.1427 21.5082ZM65.7544 18.9592C65.6541 18.9574 65.5579 18.919 65.4839 18.8512C65.4432 18.8184 65.4106 18.7767 65.3884 18.7293C65.3663 18.6819 65.3552 18.6301 65.3561 18.5778C65.372 18.3704 65.456 18.174 65.5949 18.0191C65.7547 17.8137 65.9198 17.711 66.0902 17.711C66.1954 17.7075 66.2977 17.7452 66.3755 17.816C66.415 17.8559 66.4456 17.9037 66.4653 17.9563C66.4849 18.0089 66.4932 18.0651 66.4894 18.1211C66.4739 18.3227 66.3917 18.5134 66.2557 18.663C66.1011 18.8611 65.9337 18.9592 65.7544 18.9592Z" fill="white"/>
<path d="M69.934 20.4759C69.265 21.2215 68.9305 21.7406 68.9305 22.0332C68.9305 22.1966 68.9968 22.2779 69.1286 22.2779C69.2851 22.2606 69.4339 22.2006 69.5586 22.1045C69.7362 21.9883 70.0129 21.7819 70.3887 21.4853V21.8816C69.8485 22.4146 69.4341 22.7986 69.1454 23.0337C68.8562 23.2695 68.6214 23.3874 68.4381 23.3874C68.127 23.3874 67.9705 23.1823 67.9705 22.7712C67.9709 22.6494 67.9903 22.5284 68.028 22.4126C68.0697 22.2856 68.122 22.1623 68.1845 22.0441C68.2505 21.9173 68.3523 21.735 68.4896 21.4972C68.627 21.2595 68.7848 20.9903 68.9632 20.6898C68.6609 20.8676 68.3862 21.0885 68.1479 21.3457C67.9555 21.5292 67.7745 21.7244 67.606 21.9301C67.4574 22.1144 67.2988 22.3205 67.1294 22.5463C67.0158 22.706 66.892 22.8582 66.7589 23.002C66.7294 23.0365 66.6932 23.0646 66.6525 23.0847C66.6118 23.1048 66.5675 23.1165 66.5222 23.1189C66.4013 23.1189 66.2884 22.9921 66.1863 22.7375C66.0779 22.4531 66.0254 22.1503 66.0318 21.8459C66.0245 21.6778 66.0487 21.5098 66.1031 21.3506C66.1824 21.1753 66.2769 21.0072 66.3855 20.8483C66.5814 20.5293 66.8087 20.2306 67.0641 19.9567C67.2543 19.7685 67.4369 19.6744 67.6119 19.6744C67.7148 19.6694 67.8172 19.6913 67.9091 19.7378C67.945 19.7563 67.9746 19.785 67.9943 19.8202C68.0141 19.8554 68.023 19.8957 68.0201 19.9359C68.0192 19.9781 68.0076 20.0194 67.9864 20.0558C67.9648 20.0965 67.9389 20.1347 67.9091 20.1697C67.8804 20.2044 67.8209 20.2688 67.7298 20.3679C67.1294 21.0329 66.8293 21.4642 66.8293 21.6617C66.8293 21.7726 66.8649 21.8271 66.9373 21.8271C66.9828 21.8271 67.071 21.7538 67.2018 21.6082C67.3325 21.4626 67.499 21.2694 67.71 21.0316C67.9409 20.7701 68.1863 20.5217 68.4451 20.2876C68.7477 20.0142 69.0709 19.7644 69.4119 19.5407C69.6101 19.4 69.7772 19.3297 69.9132 19.3297C69.9746 19.3297 70.0341 19.4139 70.0935 19.5813C70.1515 19.7441 70.1813 19.9156 70.1817 20.0885C70.1797 20.1777 70.0975 20.3055 69.934 20.4759Z" fill="white"/>
<path d="M71.2684 21.7132V21.8559C71.257 22.0453 71.3159 22.2322 71.4338 22.3809C71.4876 22.4425 71.5545 22.4914 71.6295 22.524C71.7046 22.5565 71.786 22.572 71.8677 22.5691C72.0677 22.5662 72.2648 22.5213 72.4463 22.4374C72.6566 22.3436 72.8559 22.227 73.0407 22.0897C73.2388 21.945 73.4802 21.7512 73.7649 21.5081V21.8559C73.4114 22.2994 73.0056 22.6986 72.5563 23.0447C72.2293 23.3035 71.8269 23.4489 71.41 23.4588C71.2539 23.4635 71.099 23.4299 70.9589 23.3608C70.8188 23.2917 70.6979 23.1893 70.6066 23.0625C70.4085 22.7983 70.3094 22.439 70.3094 21.9846C70.304 21.603 70.4005 21.2269 70.5888 20.8949C70.8333 20.5033 71.1417 20.1553 71.5012 19.8656C71.7597 19.6388 72.0497 19.4506 72.3621 19.3069C72.6015 19.1926 72.8618 19.1285 73.1269 19.1187C73.278 19.1107 73.4274 19.154 73.5509 19.2415C73.6045 19.2858 73.6468 19.3423 73.6741 19.4062C73.7015 19.4701 73.7133 19.5397 73.7084 19.609C73.7003 19.8708 73.6059 20.1226 73.4399 20.3253C73.2108 20.607 72.9338 20.8461 72.6216 21.0316C72.1922 21.2996 71.7393 21.5277 71.2684 21.7132ZM71.3258 21.3427C71.6423 21.2241 71.9384 21.057 72.2036 20.8474C72.4116 20.6872 72.5934 20.4957 72.7425 20.2797C72.8584 20.0994 72.9169 19.9667 72.9169 19.8834C72.9169 19.8002 72.8762 19.7517 72.797 19.7517C72.6774 19.7706 72.5634 19.8156 72.4631 19.8834C72.2956 19.9805 72.1389 20.0951 71.9955 20.2252C71.8331 20.3714 71.6903 20.5378 71.5705 20.7206C71.447 20.9087 71.3643 21.1206 71.3278 21.3427H71.3258Z" fill="white"/>
<path d="M76.3723 22.2898C76.8961 21.8275 77.3465 21.4237 77.7236 21.0782L78.6152 20.2649C78.8292 20.0668 79.0181 19.8997 79.1819 19.7636C79.3453 19.6269 79.4503 19.5586 79.4959 19.5586C79.5831 19.5586 79.6673 19.6448 79.7465 19.829C79.8147 19.9671 79.8554 20.1172 79.8664 20.2709C79.8664 20.3435 79.7459 20.5136 79.5048 20.781C79.2638 21.0485 79.0831 21.2625 78.9629 21.423C78.8492 21.5656 78.7861 21.7419 78.7836 21.9243C78.7813 21.9704 78.789 22.0165 78.8061 22.0594C78.8232 22.1023 78.8493 22.141 78.8827 22.1729C78.9486 22.2366 79.0367 22.2722 79.1284 22.272C79.2749 22.257 79.4133 22.1971 79.5246 22.1006C79.6785 21.9864 79.9206 21.7829 80.2508 21.4904V21.8955C79.9209 22.2076 79.6197 22.4761 79.3503 22.7019C79.1313 22.8922 78.8955 23.0623 78.6459 23.2102C78.497 23.3057 78.3269 23.3632 78.1506 23.3776C78.0943 23.3784 78.0385 23.3669 77.9871 23.3438C77.9357 23.3207 77.8901 23.2865 77.8534 23.2438C77.7729 23.1516 77.7304 23.0323 77.7345 22.91C77.7346 22.775 77.7577 22.641 77.8028 22.5137C77.8616 22.3514 77.9318 22.1935 78.0129 22.0412C78.1119 21.8579 78.2338 21.639 78.3893 21.3824C78.5449 21.1258 78.6865 20.887 78.8173 20.678C78.4303 20.993 78.0862 21.2972 77.785 21.5904C77.4839 21.8837 77.2388 22.1392 77.0499 22.3572C76.8597 22.5761 76.7091 22.7475 76.5992 22.8733C76.3862 23.1091 76.1891 23.227 76.0048 23.227C75.8205 23.227 75.7076 23.0863 75.7076 22.805C75.7076 22.691 75.7819 22.486 75.9305 22.1917C76.0791 21.8975 76.2891 21.5221 76.5635 21.0654C76.5896 21.0226 76.6013 20.9726 76.5972 20.9227C76.5998 20.9072 76.5986 20.8912 76.5938 20.8762C76.589 20.8612 76.5807 20.8476 76.5695 20.8365C76.5584 20.8253 76.5447 20.817 76.5297 20.8122C76.5147 20.8074 76.4988 20.8062 76.4833 20.8088C76.4001 20.8088 76.2792 20.8877 76.1207 21.0456C75.9622 21.2034 75.6574 21.5336 75.2063 22.0362C75.054 22.211 74.9121 22.3946 74.7813 22.586C74.6761 22.7432 74.5627 22.8946 74.4415 23.0398C74.4174 23.0722 74.3867 23.0992 74.3513 23.1189C74.3159 23.1385 74.2768 23.1504 74.2365 23.1537C74.0997 23.1537 73.9719 23.0318 73.8551 22.7881C73.7321 22.5223 73.6714 22.2319 73.6777 21.9391C73.6724 21.7297 73.7123 21.5215 73.7946 21.3289C73.9008 21.1079 74.0219 20.8944 74.1572 20.6899C74.3416 20.408 74.5505 20.1428 74.7813 19.8974C74.8464 19.826 74.925 19.7684 75.0126 19.7277C75.1002 19.6871 75.195 19.6643 75.2915 19.6606C75.3889 19.6574 75.4854 19.6803 75.5709 19.727C75.6048 19.7425 75.6338 19.7672 75.6543 19.7984C75.6748 19.8296 75.686 19.866 75.6868 19.9033C75.6868 19.9826 75.6174 20.1143 75.4788 20.2996C75.3201 20.503 75.1437 20.692 74.9517 20.8643C74.8276 20.9865 74.7185 21.1232 74.6268 21.2714C74.5477 21.3741 74.4947 21.4945 74.4722 21.6221C74.4722 21.7212 74.5119 21.7767 74.5921 21.7767C74.6565 21.7767 74.82 21.6429 75.0825 21.3804C75.345 21.1179 75.6333 20.8246 75.9463 20.5106C76.2207 20.2324 76.5122 19.9717 76.8191 19.73C77.0866 19.5219 77.3145 19.4189 77.4997 19.4189C77.5534 19.4175 77.6066 19.4283 77.6555 19.4504C77.7044 19.4725 77.7477 19.5055 77.782 19.5467C77.8574 19.6348 77.8973 19.7478 77.894 19.8637C77.894 19.9469 77.8365 20.0985 77.7226 20.3164C77.5731 20.5958 77.4077 20.8663 77.2273 21.1268C77.0034 21.4458 76.7184 21.8335 76.3723 22.2898Z" fill="white"/>
<path d="M80.8769 20.4878C81.3769 20.0164 81.9446 19.6224 82.561 19.3188C83.1039 19.0638 83.5239 18.9364 83.8211 18.9364C83.8628 18.9374 83.9039 18.9466 83.942 18.9636C83.9801 18.9807 84.0144 19.0051 84.043 19.0354C84.1112 19.1015 84.1663 19.1798 84.2055 19.2663C84.2379 19.3279 84.258 19.3951 84.2649 19.4644C84.2671 19.4944 84.2608 19.5244 84.2468 19.551C84.2328 19.5776 84.2116 19.5997 84.1857 19.615C84.0965 19.6628 84.003 19.702 83.9063 19.7319C83.9331 19.7933 83.9667 19.8716 84.0054 19.9657C84.044 20.0598 84.0797 20.138 84.1044 20.1975C84.1255 20.2471 84.1372 20.3002 84.1391 20.354C84.1391 20.4452 84.047 20.6152 83.8627 20.8642C83.6785 21.1129 83.5487 21.2971 83.4744 21.414C83.3972 21.5453 83.3587 21.6957 83.3634 21.8479C83.3634 22.1293 83.4926 22.27 83.7508 22.27C84.009 22.27 84.4254 22.021 85 21.523V21.8707C84.0377 22.9367 83.3492 23.4697 82.9345 23.4697C82.8737 23.4753 82.8124 23.4648 82.7569 23.4392C82.7015 23.4136 82.6537 23.3739 82.6185 23.324C82.5457 23.1929 82.5113 23.0439 82.5194 22.8941C82.5194 22.5936 82.6277 22.1583 82.8443 21.5884C82.2896 22.2039 81.8771 22.6418 81.607 22.902C81.3375 23.1625 81.1117 23.2983 80.9403 23.2983C80.8561 23.2983 80.752 23.226 80.6262 23.0813C80.4862 22.9127 80.3735 22.7232 80.2924 22.5196C80.1969 22.2932 80.1477 22.05 80.1477 21.8043C80.1444 21.6535 80.1614 21.5029 80.1983 21.3566C80.2399 21.2224 80.3072 21.0975 80.3964 20.989C80.5448 20.811 80.7053 20.6435 80.8769 20.4878ZM83.6081 19.8607C82.6175 20.3124 81.9131 20.6961 81.495 21.0118C81.077 21.3275 80.867 21.6528 80.865 21.9876C80.8613 22.0903 80.8827 22.1923 80.9274 22.2848C80.9417 22.3187 80.9655 22.3478 80.9959 22.3685C81.0263 22.3893 81.062 22.4008 81.0988 22.4017C81.1775 22.3894 81.2531 22.3621 81.3217 22.3215C81.7316 22.0746 82.0995 21.764 82.4114 21.4011C82.7449 21.024 83.1452 20.5105 83.6121 19.8607H83.6081Z" fill="white"/>
<path d="M115.661 18V12.4003H119.269V12.964H116.263V14.9108H119.119V15.4745H116.263V17.4363H119.269V18H115.661ZM120.181 18V13.9712H120.745V14.7529L120.617 14.7229C120.717 14.4623 120.88 14.2568 121.106 14.1065C121.336 13.9562 121.602 13.881 121.902 13.881C122.188 13.881 122.444 13.9462 122.669 14.0764C122.9 14.2067 123.08 14.3871 123.21 14.6176C123.345 14.8431 123.413 15.0987 123.413 15.3843V18H122.849V15.6023C122.849 15.3567 122.804 15.1488 122.714 14.9784C122.629 14.808 122.506 14.6778 122.346 14.5876C122.19 14.4923 122.01 14.4447 121.805 14.4447C121.599 14.4447 121.416 14.4923 121.256 14.5876C121.096 14.6778 120.97 14.8105 120.88 14.9859C120.79 15.1563 120.745 15.3617 120.745 15.6023V18H120.181ZM126.031 18.0451C125.67 18.0451 125.392 17.9399 125.196 17.7294C125.001 17.519 124.903 17.2183 124.903 16.8274V14.5349H124.159V13.9712H124.347C124.517 13.9712 124.653 13.9161 124.753 13.8059C124.853 13.6906 124.903 13.5478 124.903 13.3774V13.0392H125.467V13.9712H126.354V14.5349H125.467V16.8274C125.467 16.9627 125.487 17.083 125.527 17.1882C125.567 17.2884 125.635 17.3686 125.73 17.4288C125.83 17.4889 125.963 17.519 126.128 17.519C126.168 17.519 126.216 17.5164 126.271 17.5114C126.326 17.5064 126.374 17.5014 126.414 17.4964V18C126.354 18.015 126.286 18.0251 126.211 18.0301C126.136 18.0401 126.076 18.0451 126.031 18.0451ZM129.091 18.0902C128.715 18.0902 128.375 18 128.069 17.8196C127.768 17.6342 127.53 17.3812 127.355 17.0605C127.179 16.7398 127.092 16.3765 127.092 15.9706C127.092 15.5647 127.177 15.2064 127.347 14.8957C127.518 14.58 127.748 14.332 128.039 14.1516C128.334 13.9712 128.665 13.881 129.031 13.881C129.322 13.881 129.58 13.9361 129.805 14.0464C130.036 14.1516 130.231 14.2969 130.391 14.4823C130.552 14.6627 130.675 14.8682 130.76 15.0987C130.845 15.3242 130.887 15.5572 130.887 15.7977C130.887 15.8478 130.885 15.9054 130.88 15.9706C130.875 16.0307 130.867 16.0933 130.857 16.1585H127.452V15.6323H130.534L130.264 15.8578C130.309 15.5822 130.276 15.3367 130.166 15.1212C130.061 14.9007 129.908 14.7279 129.707 14.6026C129.507 14.4723 129.281 14.4072 129.031 14.4072C128.78 14.4072 128.547 14.4723 128.332 14.6026C128.121 14.7329 127.956 14.9158 127.836 15.1513C127.716 15.3818 127.668 15.6574 127.693 15.9781C127.668 16.2988 127.718 16.5794 127.843 16.8199C127.974 17.0554 128.149 17.2383 128.369 17.3686C128.595 17.4989 128.836 17.564 129.091 17.564C129.387 17.564 129.635 17.4939 129.835 17.3536C130.036 17.2133 130.198 17.0379 130.324 16.8274L130.805 17.083C130.725 17.2634 130.602 17.4313 130.436 17.5866C130.271 17.7369 130.073 17.8597 129.843 17.9549C129.617 18.0451 129.367 18.0902 129.091 18.0902ZM131.881 18V13.9712H132.445V14.6327L132.37 14.5349C132.465 14.3445 132.608 14.1942 132.798 14.084C132.994 13.9737 133.229 13.9186 133.505 13.9186H133.761V14.4823H133.407C133.117 14.4823 132.884 14.5725 132.708 14.7529C132.533 14.9333 132.445 15.1889 132.445 15.5196V18H131.881ZM135.962 18.0451C135.601 18.0451 135.323 17.9399 135.128 17.7294C134.932 17.519 134.835 17.2183 134.835 16.8274V14.5349H134.09V13.9712H134.278C134.449 13.9712 134.584 13.9161 134.684 13.8059C134.784 13.6906 134.835 13.5478 134.835 13.3774V13.0392H135.398V13.9712H136.285V14.5349H135.398V16.8274C135.398 16.9627 135.418 17.083 135.458 17.1882C135.498 17.2884 135.566 17.3686 135.661 17.4288C135.762 17.4889 135.894 17.519 136.06 17.519C136.1 17.519 136.147 17.5164 136.203 17.5114C136.258 17.5064 136.305 17.5014 136.345 17.4964V18C136.285 18.015 136.218 18.0251 136.142 18.0301C136.067 18.0401 136.007 18.0451 135.962 18.0451ZM138.427 18.0902C138.171 18.0902 137.943 18.0426 137.743 17.9474C137.542 17.8472 137.385 17.7119 137.269 17.5415C137.154 17.3711 137.096 17.1757 137.096 16.9552C137.096 16.7448 137.142 16.5543 137.232 16.384C137.322 16.2086 137.462 16.0608 137.653 15.9405C137.843 15.8202 138.086 15.7351 138.382 15.685L139.96 15.4219V15.933L138.517 16.1735C138.226 16.2236 138.016 16.3163 137.886 16.4516C137.76 16.5869 137.698 16.7473 137.698 16.9327C137.698 17.1131 137.768 17.2659 137.908 17.3912C138.054 17.5164 138.239 17.5791 138.464 17.5791C138.74 17.5791 138.981 17.5215 139.186 17.4062C139.391 17.2859 139.552 17.1256 139.667 16.9252C139.782 16.7247 139.84 16.5017 139.84 16.2562V15.234C139.84 14.9934 139.752 14.798 139.577 14.6477C139.401 14.4974 139.173 14.4222 138.893 14.4222C138.647 14.4222 138.432 14.4848 138.246 14.6101C138.061 14.7304 137.923 14.8882 137.833 15.0836L137.322 14.8055C137.397 14.6352 137.515 14.4798 137.675 14.3395C137.841 14.1992 138.028 14.089 138.239 14.0088C138.449 13.9236 138.667 13.881 138.893 13.881C139.188 13.881 139.449 13.9386 139.675 14.0539C139.905 14.1691 140.083 14.3295 140.208 14.5349C140.339 14.7354 140.404 14.9684 140.404 15.234V18H139.84V17.1957L139.923 17.2784C139.852 17.4288 139.742 17.5666 139.592 17.6918C139.447 17.8121 139.274 17.9098 139.073 17.985C138.878 18.0551 138.662 18.0902 138.427 18.0902ZM141.563 18V13.9712H142.127V18H141.563ZM141.563 13.2271V12.4003H142.127V13.2271H141.563ZM143.281 18V13.9712H143.845V14.7529L143.717 14.7229C143.817 14.4623 143.98 14.2568 144.205 14.1065C144.436 13.9562 144.701 13.881 145.002 13.881C145.288 13.881 145.543 13.9462 145.769 14.0764C145.999 14.2067 146.18 14.3871 146.31 14.6176C146.445 14.8431 146.513 15.0987 146.513 15.3843V18H145.949V15.6023C145.949 15.3567 145.904 15.1488 145.814 14.9784C145.729 14.808 145.606 14.6778 145.446 14.5876C145.29 14.4923 145.11 14.4447 144.904 14.4447C144.699 14.4447 144.516 14.4923 144.356 14.5876C144.195 14.6778 144.07 14.8105 143.98 14.9859C143.89 15.1563 143.845 15.3617 143.845 15.6023V18H143.281ZM147.589 18V13.9712H148.153V14.7379L148.063 14.6251C148.173 14.3896 148.336 14.2067 148.552 14.0764C148.772 13.9462 149.013 13.881 149.273 13.881C149.584 13.881 149.864 13.9687 150.115 14.1441C150.366 14.3195 150.543 14.5475 150.649 14.8281L150.491 14.8356C150.591 14.5249 150.764 14.2894 151.009 14.1291C151.26 13.9637 151.536 13.881 151.836 13.881C152.107 13.881 152.355 13.9462 152.58 14.0764C152.811 14.2067 152.994 14.3871 153.129 14.6176C153.269 14.8431 153.34 15.0987 153.34 15.3843V18H152.776V15.6023C152.776 15.3567 152.731 15.1488 152.641 14.9784C152.555 14.808 152.438 14.6778 152.287 14.5876C152.137 14.4923 151.964 14.4447 151.769 14.4447C151.578 14.4447 151.405 14.4923 151.25 14.5876C151.095 14.6778 150.972 14.8105 150.882 14.9859C150.791 15.1563 150.746 15.3617 150.746 15.6023V18H150.183V15.6023C150.183 15.3567 150.138 15.1488 150.047 14.9784C149.962 14.808 149.844 14.6778 149.694 14.5876C149.544 14.4923 149.371 14.4447 149.175 14.4447C148.98 14.4447 148.805 14.4923 148.649 14.5876C148.499 14.6778 148.379 14.8105 148.289 14.9859C148.198 15.1563 148.153 15.3617 148.153 15.6023V18H147.589ZM156.25 18.0902C155.874 18.0902 155.533 18 155.228 17.8196C154.927 17.6342 154.689 17.3812 154.514 17.0605C154.338 16.7398 154.251 16.3765 154.251 15.9706C154.251 15.5647 154.336 15.2064 154.506 14.8957C154.676 14.58 154.907 14.332 155.198 14.1516C155.493 13.9712 155.824 13.881 156.19 13.881C156.48 13.881 156.738 13.9361 156.964 14.0464C157.194 14.1516 157.39 14.2969 157.55 14.4823C157.711 14.6627 157.833 14.8682 157.919 15.0987C158.004 15.3242 158.046 15.5572 158.046 15.7977C158.046 15.8478 158.044 15.9054 158.039 15.9706C158.034 16.0307 158.026 16.0933 158.016 16.1585H154.611V15.6323H157.693L157.422 15.8578C157.468 15.5822 157.435 15.3367 157.325 15.1212C157.22 14.9007 157.067 14.7279 156.866 14.6026C156.666 14.4723 156.44 14.4072 156.19 14.4072C155.939 14.4072 155.706 14.4723 155.491 14.6026C155.28 14.7329 155.115 14.9158 154.995 15.1513C154.874 15.3818 154.827 15.6574 154.852 15.9781C154.827 16.2988 154.877 16.5794 155.002 16.8199C155.132 17.0554 155.308 17.2383 155.528 17.3686C155.754 17.4989 155.994 17.564 156.25 17.564C156.546 17.564 156.794 17.4939 156.994 17.3536C157.194 17.2133 157.357 17.0379 157.483 16.8274L157.964 17.083C157.883 17.2634 157.761 17.4313 157.595 17.5866C157.43 17.7369 157.232 17.8597 157.002 17.9549C156.776 18.0451 156.526 18.0902 156.25 18.0902ZM159.04 18V13.9712H159.604V14.7529L159.476 14.7229C159.576 14.4623 159.739 14.2568 159.965 14.1065C160.195 13.9562 160.461 13.881 160.762 13.881C161.047 13.881 161.303 13.9462 161.528 14.0764C161.759 14.2067 161.939 14.3871 162.069 14.6176C162.205 14.8431 162.272 15.0987 162.272 15.3843V18H161.709V15.6023C161.709 15.3567 161.663 15.1488 161.573 14.9784C161.488 14.808 161.365 14.6778 161.205 14.5876C161.05 14.4923 160.869 14.4447 160.664 14.4447C160.458 14.4447 160.275 14.4923 160.115 14.5876C159.955 14.6778 159.829 14.8105 159.739 14.9859C159.649 15.1563 159.604 15.3617 159.604 15.6023V18H159.04ZM164.89 18.0451C164.529 18.0451 164.251 17.9399 164.056 17.7294C163.86 17.519 163.762 17.2183 163.762 16.8274V14.5349H163.018V13.9712H163.206C163.377 13.9712 163.512 13.9161 163.612 13.8059C163.712 13.6906 163.762 13.5478 163.762 13.3774V13.0392H164.326V13.9712H165.213V14.5349H164.326V16.8274C164.326 16.9627 164.346 17.083 164.386 17.1882C164.426 17.2884 164.494 17.3686 164.589 17.4288C164.689 17.4889 164.822 17.519 164.988 17.519C165.028 17.519 165.075 17.5164 165.13 17.5114C165.185 17.5064 165.233 17.5014 165.273 17.4964V18C165.213 18.015 165.145 18.0251 165.07 18.0301C164.995 18.0401 164.935 18.0451 164.89 18.0451Z" fill="white"/>
<path d="M115.999 31V22.5455H118.904C119.456 22.5455 119.94 22.6552 120.356 22.8746C120.772 23.0865 121.094 23.3891 121.321 23.7825C121.556 24.1683 121.673 24.6185 121.673 25.1329C121.673 25.7306 121.514 26.2413 121.196 26.665C120.886 27.0886 120.462 27.3875 119.925 27.5615L121.9 31H120.833L118.768 27.3572L119.38 27.709H116.907V31H115.999ZM116.907 26.8579H118.949C119.312 26.8579 119.63 26.7898 119.902 26.6536C120.175 26.5099 120.387 26.3094 120.538 26.0521C120.689 25.7874 120.765 25.4772 120.765 25.1216C120.765 24.766 120.689 24.4596 120.538 24.2024C120.387 23.9452 120.175 23.7484 119.902 23.6123C119.63 23.4685 119.312 23.3967 118.949 23.3967H116.907V26.8579ZM125.569 31.1362C125.002 31.1362 124.487 31 124.026 30.7276C123.572 30.4477 123.213 30.0657 122.948 29.5815C122.683 29.0973 122.551 28.5488 122.551 27.936C122.551 27.3232 122.679 26.7822 122.936 26.3132C123.194 25.8365 123.542 25.462 123.98 25.1897C124.427 24.9173 124.926 24.7811 125.478 24.7811C125.917 24.7811 126.307 24.8644 126.647 25.0308C126.995 25.1897 127.29 25.4091 127.532 25.689C127.775 25.9614 127.96 26.2715 128.089 26.6196C128.217 26.96 128.281 27.3118 128.281 27.675C128.281 27.7506 128.278 27.8376 128.27 27.936C128.263 28.0267 128.251 28.1213 128.236 28.2197H123.095V27.4253H127.748L127.34 27.7657C127.408 27.3496 127.358 26.9789 127.192 26.6536C127.033 26.3207 126.802 26.0597 126.5 25.8706C126.197 25.6739 125.857 25.5755 125.478 25.5755C125.1 25.5755 124.748 25.6739 124.423 25.8706C124.105 26.0673 123.856 26.3434 123.674 26.699C123.493 27.047 123.421 27.4631 123.458 27.9473C123.421 28.4315 123.496 28.8552 123.685 29.2183C123.882 29.5739 124.147 29.85 124.48 30.0467C124.82 30.2434 125.183 30.3418 125.569 30.3418C126.016 30.3418 126.39 30.2359 126.693 30.024C126.995 29.8122 127.241 29.5474 127.43 29.2297L128.157 29.6155C128.036 29.8879 127.85 30.1413 127.601 30.3758C127.351 30.6028 127.052 30.7882 126.704 30.9319C126.364 31.0681 125.985 31.1362 125.569 31.1362ZM132.528 31.1362C131.961 31.1362 131.45 31 130.996 30.7276C130.542 30.4477 130.183 30.0694 129.918 29.5928C129.661 29.1086 129.532 28.5639 129.532 27.9587C129.532 27.3459 129.661 26.8011 129.918 26.3245C130.183 25.8479 130.539 25.4734 130.985 25.201C131.439 24.9211 131.953 24.7811 132.528 24.7811C133.05 24.7811 133.516 24.8946 133.924 25.1216C134.333 25.3486 134.654 25.655 134.889 26.0408L134.753 26.2791V22.4094H135.604V31H134.753V29.6382L134.889 29.763C134.677 30.2018 134.359 30.5423 133.936 30.7844C133.519 31.0189 133.05 31.1362 132.528 31.1362ZM132.574 30.2851C132.982 30.2851 133.349 30.1829 133.675 29.9787C134.007 29.7744 134.268 29.4982 134.458 29.1502C134.654 28.7947 134.753 28.3975 134.753 27.9587C134.753 27.5199 134.654 27.1265 134.458 26.7784C134.268 26.4229 134.007 26.1429 133.675 25.9387C133.349 25.7344 132.982 25.6323 132.574 25.6323C132.173 25.6323 131.81 25.7344 131.484 25.9387C131.159 26.1429 130.902 26.4191 130.713 26.7671C130.531 27.1151 130.44 27.5123 130.44 27.9587C130.44 28.3975 130.531 28.7947 130.713 29.1502C130.902 29.4982 131.155 29.7744 131.473 29.9787C131.798 30.1829 132.165 30.2851 132.574 30.2851ZM140.12 31.1362C139.553 31.1362 139.038 31 138.577 30.7276C138.123 30.4477 137.764 30.0657 137.499 29.5815C137.234 29.0973 137.102 28.5488 137.102 27.936C137.102 27.3232 137.23 26.7822 137.488 26.3132C137.745 25.8365 138.093 25.462 138.532 25.1897C138.978 24.9173 139.477 24.7811 140.03 24.7811C140.468 24.7811 140.858 24.8644 141.198 25.0308C141.546 25.1897 141.841 25.4091 142.084 25.689C142.326 25.9614 142.511 26.2715 142.64 26.6196C142.768 26.96 142.833 27.3118 142.833 27.675C142.833 27.7506 142.829 27.8376 142.821 27.936C142.814 28.0267 142.802 28.1213 142.787 28.2197H137.646V27.4253H142.299L141.891 27.7657C141.959 27.3496 141.91 26.9789 141.743 26.6536C141.584 26.3207 141.353 26.0597 141.051 25.8706C140.748 25.6739 140.408 25.5755 140.03 25.5755C139.651 25.5755 139.299 25.6739 138.974 25.8706C138.656 26.0673 138.407 26.3434 138.225 26.699C138.044 27.047 137.972 27.4631 138.01 27.9473C137.972 28.4315 138.047 28.8552 138.236 29.2183C138.433 29.5739 138.698 29.85 139.031 30.0467C139.371 30.2434 139.734 30.3418 140.12 30.3418C140.567 30.3418 140.941 30.2359 141.244 30.024C141.546 29.8122 141.792 29.5474 141.981 29.2297L142.708 29.6155C142.587 29.8879 142.401 30.1413 142.152 30.3758C141.902 30.6028 141.603 30.7882 141.255 30.9319C140.915 31.0681 140.536 31.1362 140.12 31.1362ZM144.957 31V25.7684H143.743V24.9173H144.957V24.3726C144.957 23.9489 145.052 23.5934 145.241 23.3059C145.43 23.0108 145.68 22.7876 145.99 22.6363C146.3 22.485 146.633 22.4094 146.989 22.4094C147.064 22.4094 147.151 22.4169 147.25 22.432C147.348 22.4396 147.427 22.451 147.488 22.4661V23.2378C147.435 23.2226 147.363 23.2151 147.272 23.2151C147.182 23.2075 147.117 23.2037 147.079 23.2037C146.716 23.2037 146.414 23.2907 146.172 23.4647C145.93 23.6387 145.808 23.9414 145.808 24.3726V24.9173H149.224V25.7684H145.808V31H144.957ZM148.509 31V24.9173H149.36V31H148.509ZM150.938 31V24.9173H151.789V26.0975L151.596 26.0521C151.748 25.6587 151.994 25.3486 152.334 25.1216C152.682 24.8946 153.083 24.7811 153.537 24.7811C153.968 24.7811 154.354 24.8795 154.695 25.0762C155.043 25.2729 155.315 25.5453 155.512 25.8933C155.716 26.2337 155.818 26.6196 155.818 27.0508V31H154.967V27.3799C154.967 27.0092 154.899 26.6952 154.763 26.438C154.634 26.1808 154.449 25.9841 154.207 25.8479C153.972 25.7041 153.7 25.6323 153.389 25.6323C153.079 25.6323 152.803 25.7041 152.561 25.8479C152.319 25.9841 152.13 26.1845 151.994 26.4493C151.857 26.7066 151.789 27.0168 151.789 27.3799V31H150.938ZM160.213 31.1362C159.645 31.1362 159.131 31 158.669 30.7276C158.215 30.4477 157.856 30.0657 157.591 29.5815C157.326 29.0973 157.194 28.5488 157.194 27.936C157.194 27.3232 157.323 26.7822 157.58 26.3132C157.837 25.8365 158.185 25.462 158.624 25.1897C159.07 24.9173 159.569 24.7811 160.122 24.7811C160.561 24.7811 160.95 24.8644 161.291 25.0308C161.639 25.1897 161.934 25.4091 162.176 25.689C162.418 25.9614 162.603 26.2715 162.732 26.6196C162.86 26.96 162.925 27.3118 162.925 27.675C162.925 27.7506 162.921 27.8376 162.913 27.936C162.906 28.0267 162.895 28.1213 162.879 28.2197H157.739V27.4253H162.391L161.983 27.7657C162.051 27.3496 162.002 26.9789 161.835 26.6536C161.676 26.3207 161.446 26.0597 161.143 25.8706C160.84 25.6739 160.5 25.5755 160.122 25.5755C159.743 25.5755 159.392 25.6739 159.066 25.8706C158.749 26.0673 158.499 26.3434 158.317 26.699C158.136 27.047 158.064 27.4631 158.102 27.9473C158.064 28.4315 158.14 28.8552 158.329 29.2183C158.525 29.5739 158.79 29.85 159.123 30.0467C159.464 30.2434 159.827 30.3418 160.213 30.3418C160.659 30.3418 161.033 30.2359 161.336 30.024C161.639 29.8122 161.885 29.5474 162.074 29.2297L162.8 29.6155C162.679 29.8879 162.494 30.1413 162.244 30.3758C161.994 30.6028 161.695 30.7882 161.347 30.9319C161.007 31.0681 160.629 31.1362 160.213 31.1362ZM167.172 31.1362C166.604 31.1362 166.094 31 165.64 30.7276C165.186 30.4477 164.826 30.0694 164.562 29.5928C164.304 29.1086 164.176 28.5639 164.176 27.9587C164.176 27.3459 164.304 26.8011 164.562 26.3245C164.826 25.8479 165.182 25.4734 165.628 25.201C166.082 24.9211 166.597 24.7811 167.172 24.7811C167.694 24.7811 168.159 24.8946 168.568 25.1216C168.976 25.3486 169.298 25.655 169.532 26.0408L169.396 26.2791V22.4094H170.247V31H169.396V29.6382L169.532 29.763C169.32 30.2018 169.003 30.5423 168.579 30.7844C168.163 31.0189 167.694 31.1362 167.172 31.1362ZM167.217 30.2851C167.626 30.2851 167.993 30.1829 168.318 29.9787C168.651 29.7744 168.912 29.4982 169.101 29.1502C169.298 28.7947 169.396 28.3975 169.396 27.9587C169.396 27.5199 169.298 27.1265 169.101 26.7784C168.912 26.4229 168.651 26.1429 168.318 25.9387C167.993 25.7344 167.626 25.6323 167.217 25.6323C166.816 25.6323 166.453 25.7344 166.128 25.9387C165.802 26.1429 165.545 26.4191 165.356 26.7671C165.174 27.1151 165.084 27.5123 165.084 27.9587C165.084 28.3975 165.174 28.7947 165.356 29.1502C165.545 29.4982 165.799 29.7744 166.116 29.9787C166.442 30.1829 166.809 30.2851 167.217 30.2851ZM175.512 31V23.3967H173.174V22.5455H178.735V23.3967H176.42V31H175.512ZM181.781 31.1362C181.206 31.1362 180.684 31 180.214 30.7276C179.745 30.4477 179.371 30.0694 179.091 29.5928C178.819 29.1086 178.682 28.5601 178.682 27.9473C178.682 27.3421 178.819 26.8011 179.091 26.3245C179.363 25.8479 179.73 25.4734 180.192 25.201C180.661 24.9211 181.19 24.7811 181.781 24.7811C182.371 24.7811 182.896 24.9173 183.358 25.1897C183.827 25.462 184.194 25.8365 184.459 26.3132C184.731 26.7898 184.867 27.3345 184.867 27.9473C184.867 28.5677 184.727 29.12 184.447 29.6042C184.167 30.0808 183.793 30.4553 183.324 30.7276C182.862 31 182.348 31.1362 181.781 31.1362ZM181.781 30.2851C182.189 30.2851 182.556 30.1829 182.881 29.9787C183.214 29.7744 183.475 29.4945 183.664 29.1389C183.861 28.7833 183.959 28.3861 183.959 27.9473C183.959 27.5085 183.861 27.1151 183.664 26.7671C183.475 26.4191 183.214 26.1429 182.881 25.9387C182.556 25.7344 182.189 25.6323 181.781 25.6323C181.372 25.6323 181.001 25.7344 180.668 25.9387C180.343 26.1429 180.082 26.4191 179.885 26.7671C179.689 27.1151 179.59 27.5085 179.59 27.9473C179.59 28.3861 179.689 28.7833 179.885 29.1389C180.082 29.4945 180.343 29.7744 180.668 29.9787C181.001 30.1829 181.372 30.2851 181.781 30.2851ZM189.115 31.1362C188.547 31.1362 188.037 31 187.583 30.7276C187.129 30.4477 186.769 30.0694 186.505 29.5928C186.247 29.1086 186.119 28.5639 186.119 27.9587C186.119 27.3459 186.247 26.8011 186.505 26.3245C186.769 25.8479 187.125 25.4734 187.571 25.201C188.025 24.9211 188.54 24.7811 189.115 24.7811C189.637 24.7811 190.102 24.8946 190.51 25.1216C190.919 25.3486 191.241 25.655 191.475 26.0408L191.339 26.2791V22.4094H192.19V31H191.339V29.6382L191.475 29.763C191.263 30.2018 190.946 30.5423 190.522 30.7844C190.106 31.0189 189.637 31.1362 189.115 31.1362ZM189.16 30.2851C189.569 30.2851 189.936 30.1829 190.261 29.9787C190.594 29.7744 190.855 29.4982 191.044 29.1502C191.241 28.7947 191.339 28.3975 191.339 27.9587C191.339 27.5199 191.241 27.1265 191.044 26.7784C190.855 26.4229 190.594 26.1429 190.261 25.9387C189.936 25.7344 189.569 25.6323 189.16 25.6323C188.759 25.6323 188.396 25.7344 188.071 25.9387C187.745 26.1429 187.488 26.4191 187.299 26.7671C187.117 27.1151 187.027 27.5123 187.027 27.9587C187.027 28.3975 187.117 28.7947 187.299 29.1502C187.488 29.4982 187.742 29.7744 188.059 29.9787C188.385 30.1829 188.752 30.2851 189.16 30.2851ZM195.697 31.1362C195.311 31.1362 194.966 31.0643 194.664 30.9206C194.361 30.7693 194.123 30.565 193.949 30.3078C193.775 30.0505 193.688 29.7555 193.688 29.4226C193.688 29.1048 193.756 28.8173 193.892 28.5601C194.028 28.2953 194.24 28.0721 194.528 27.8906C194.815 27.709 195.182 27.5804 195.628 27.5047L198.012 27.1075V27.8792L195.833 28.2424C195.394 28.318 195.076 28.458 194.879 28.6623C194.69 28.8665 194.596 29.1086 194.596 29.3885C194.596 29.6609 194.702 29.8917 194.914 30.0808C195.133 30.2699 195.413 30.3645 195.753 30.3645C196.169 30.3645 196.533 30.2775 196.843 30.1035C197.153 29.9219 197.395 29.6798 197.569 29.3772C197.743 29.0746 197.83 28.7379 197.83 28.3672V26.8238C197.83 26.4607 197.698 26.1656 197.433 25.9387C197.168 25.7117 196.824 25.5982 196.4 25.5982C196.029 25.5982 195.704 25.6928 195.424 25.8819C195.144 26.0635 194.936 26.3018 194.8 26.5969L194.028 26.177C194.142 25.9198 194.32 25.6852 194.562 25.4734C194.811 25.2616 195.095 25.0951 195.413 24.9741C195.731 24.8454 196.06 24.7811 196.4 24.7811C196.847 24.7811 197.24 24.8681 197.58 25.0422C197.928 25.2162 198.197 25.4583 198.386 25.7684C198.583 26.0711 198.681 26.4229 198.681 26.8238V31H197.83V29.7857L197.955 29.9106C197.849 30.1375 197.683 30.3456 197.456 30.5347C197.236 30.7163 196.975 30.8638 196.673 30.9773C196.377 31.0832 196.052 31.1362 195.697 31.1362ZM200.557 33.4966C200.436 33.4966 200.311 33.4853 200.182 33.4626C200.061 33.4474 199.94 33.4172 199.819 33.3718V32.5774C199.895 32.585 199.989 32.5963 200.103 32.6115C200.224 32.6342 200.345 32.6455 200.466 32.6455C200.837 32.6455 201.12 32.5661 201.317 32.4072C201.514 32.2559 201.707 31.9608 201.896 31.522L202.282 30.6142L202.259 31.3631L199.683 24.9173H200.602L202.713 30.2397H202.475L204.574 24.9173H205.516L202.736 31.7717C202.614 32.0667 202.459 32.3467 202.27 32.6115C202.089 32.8762 201.858 33.0881 201.578 33.247C201.298 33.4134 200.958 33.4966 200.557 33.4966Z" fill="white"/>
<line x1="100.5" y1="-2.18557e-08" x2="100.5" y2="43" stroke="white" stroke-opacity="0.69"/>
</svg>
